# MagicaVoxel @ Ephtracy

# group
o 

# material
mtllib LogFenceDoor.mtl
usemtl palette

# normals
vn -1 0 0
vn 1 0 0
vn 0 0 1
vn 0 0 -1
vn 0 -1 0
vn 0 1 0

# texcoords
vt 0.955078 0.5
vt 0.958984 0.5
vt 0.962891 0.5
vt 0.994141 0.5

# verts
v -0.3 0.9 0.6
v -0.3 0.9 0.5
v -0.3 1.1 0.6
v -0.3 1.1 0.5
v -0.1 0 0.7
v -0.1 0 0.6
v -0.1 0 0.5
v -0.1 0 0.4
v -0.1 0 0.3
v -0.1 0 0.2
v -0.1 0 0.1
v -0.1 0 -0.1
v -0.1 0 -0.2
v -0.1 0 -0.3
v -0.1 0 -0.4
v -0.1 0 -0.5
v -0.1 0 -0.6
v -0.1 0 -0.7
v -0.1 0.1 0.7
v -0.1 0.1 0.6
v -0.1 0.1 0.4
v -0.1 0.1 0.3
v -0.1 0.1 -0.2
v -0.1 0.1 -0.3
v -0.1 0.1 -0.5
v -0.1 0.1 -0.6
v -0.1 0.1 -0.7
v -0.1 0.2 0.6
v -0.1 0.2 0.5
v -0.1 0.2 0.4
v -0.1 0.2 0.2
v -0.1 0.2 0.1
v -0.1 0.2 -0.1
v -0.1 0.2 -0.2
v -0.1 0.2 -0.4
v -0.1 0.2 -0.5
v -0.1 0.2 -0.6
v -0.1 0.3 0.6
v -0.1 0.3 0.5
v -0.1 0.3 0.4
v -0.1 0.3 0.2
v -0.1 0.3 0.1
v -0.1 0.3 -0.1
v -0.1 0.3 -0.2
v -0.1 0.3 -0.3
v -0.1 0.3 -0.4
v -0.1 0.3 -0.5
v -0.1 0.3 -0.6
v -0.1 0.3 -0.7
v -0.1 0.4 0.6
v -0.1 0.4 0.5
v -0.1 0.4 0.3
v -0.1 0.4 0.2
v -0.1 0.4 -5.96046e-008
v -0.1 0.4 -0.1
v -0.1 0.4 -0.2
v -0.1 0.4 -0.3
v -0.1 0.4 -0.4
v -0.1 0.4 -0.5
v -0.1 0.4 -0.6
v -0.1 0.5 0.7
v -0.1 0.5 0.6
v -0.1 0.5 0.1
v -0.1 0.5 -5.96046e-008
v -0.1 0.5 -0.1
v -0.1 0.5 -0.5
v -0.1 0.5 -0.6
v -0.1 0.6 0.7
v -0.1 0.6 0.5
v -0.1 0.6 0.3
v -0.1 0.6 0.2
v -0.1 0.6 0.1
v -0.1 0.6 -5.96046e-008
v -0.1 0.6 -0.1
v -0.1 0.6 -0.3
v -0.1 0.6 -0.4
v -0.1 0.6 -0.5
v -0.1 0.6 -0.6
v -0.1 0.6 -0.7
v -0.1 0.7 0.6
v -0.1 0.7 0.5
v -0.1 0.7 -5.96046e-008
v -0.1 0.7 -0.1
v -0.1 0.7 -0.3
v -0.1 0.7 -0.4
v -0.1 0.8 0.6
v -0.1 0.8 0.5
v -0.1 0.8 0.4
v -0.1 0.8 0.3
v -0.1 0.8 -0.3
v -0.1 0.8 -0.4
v -0.1 0.9 0.6
v -0.1 0.9 0.5
v -0.1 0.9 0.1
v -0.1 0.9 -5.96046e-008
v -0.1 0.9 -0.2
v -0.1 0.9 -0.3
v -0.1 0.9 -0.6
v -0.1 0.9 -0.7
v -0.1 1 0.7
v -0.1 1 0.6
v -0.1 1 0.4
v -0.1 1 0.3
v -0.1 1.1 0.6
v -0.1 1.1 0.5
v -0.1 1.1 -0.3
v -0.1 1.1 -0.4
v -0.1 1.1 -0.5
v -0.1 1.1 -0.6
v -0.1 1.2 -5.96046e-008
v -0.1 1.2 -0.1
v -0.1 1.2 -0.2
v -0.1 1.2 -0.3
v -0.1 1.3 0.7
v -0.1 1.3 0.6
v -0.1 1.3 0.3
v -0.1 1.3 0.2
v -0.1 1.3 0.1
v -0.1 1.3 -5.96046e-008
v -0.1 1.4 0.6
v -0.1 1.4 0.5
v -0.1 1.5 -5.96046e-008
v -0.1 1.5 -0.1
v -0.1 1.5 -0.5
v -0.1 1.5 -0.6
v -0.1 1.6 0.7
v -0.1 1.6 0.6
v -0.1 1.6 0.3
v -0.1 1.6 0.2
v -0.1 1.6 -0.6
v -0.1 1.6 -0.7
v -0.1 1.7 0.6
v -0.1 1.7 0.5
v -0.1 1.7 0.4
v -0.1 1.7 0.2
v -0.1 1.7 0.1
v -0.1 1.7 -0.1
v -0.1 1.7 -0.2
v -0.1 1.7 -0.3
v -0.1 1.7 -0.4
v -0.1 1.7 -0.5
v -0.1 1.7 -0.6
v -0.1 1.8 0.6
v -0.1 1.8 0.5
v -0.1 1.8 0.4
v -0.1 1.8 0.2
v -0.1 1.8 0.1
v -0.1 1.8 -5.96046e-008
v -0.1 1.8 -0.1
v -0.1 1.8 -0.2
v -0.1 1.8 -0.4
v -0.1 1.8 -0.5
v -0.1 1.8 -0.7
v -0.1 2 0.7
v -0.1 2 0.6
v -0.1 2 0.5
v -0.1 2 0.4
v -0.1 2 0.2
v -0.1 2 0.1
v -0.1 2 -5.96046e-008
v -0.1 2 -0.1
v -0.1 2 -0.2
v -0.1 2 -0.4
v -0.1 2 -0.5
v -0.1 2 -0.7
v 0.1 0 0.7
v 0.1 0 0.5
v 0.1 0 0.4
v 0.1 0 0.2
v 0.1 0 0.1
v 0.1 0 -0.1
v 0.1 0 -0.2
v 0.1 0 -0.3
v 0.1 0 -0.4
v 0.1 0 -0.5
v 0.1 0 -0.6
v 0.1 0 -0.7
v 0.1 0.1 0.6
v 0.1 0.1 0.5
v 0.1 0.1 -0.2
v 0.1 0.1 -0.3
v 0.1 0.2 0.6
v 0.1 0.2 0.5
v 0.1 0.2 0.4
v 0.1 0.2 0.2
v 0.1 0.2 0.1
v 0.1 0.2 -0.1
v 0.1 0.2 -0.2
v 0.1 0.2 -0.4
v 0.1 0.2 -0.5
v 0.1 0.2 -0.6
v 0.1 0.2 -0.7
v 0.1 0.3 0.6
v 0.1 0.3 0.5
v 0.1 0.3 0.4
v 0.1 0.3 0.2
v 0.1 0.3 0.1
v 0.1 0.3 -5.96046e-008
v 0.1 0.3 -0.1
v 0.1 0.3 -0.2
v 0.1 0.3 -0.3
v 0.1 0.3 -0.4
v 0.1 0.3 -0.5
v 0.1 0.3 -0.7
v 0.1 0.4 0.7
v 0.1 0.4 0.5
v 0.1 0.4 0.4
v 0.1 0.4 0.3
v 0.1 0.4 0.1
v 0.1 0.4 -5.96046e-008
v 0.1 0.4 -0.6
v 0.1 0.4 -0.7
v 0.1 0.5 0.4
v 0.1 0.5 0.3
v 0.1 0.5 -0.3
v 0.1 0.5 -0.4
v 0.1 0.5 -0.5
v 0.1 0.5 -0.6
v 0.1 0.6 0.6
v 0.1 0.6 0.5
v 0.1 0.6 -0.6
v 0.1 0.6 -0.7
v 0.1 0.7 0.6
v 0.1 0.7 0.5
v 0.1 0.7 -5.96046e-008
v 0.1 0.7 -0.1
v 0.1 0.8 0.6
v 0.1 0.8 0.5
v 0.1 0.8 0.3
v 0.1 0.8 0.2
v 0.1 0.8 -0.2
v 0.1 0.8 -0.3
v 0.1 0.8 -0.5
v 0.1 0.8 -0.6
v 0.1 0.9 0.7
v 0.1 0.9 0.6
v 0.1 0.9 0.5
v 0.1 0.9 -0.5
v 0.1 0.9 -0.6
v 0.1 1 0.1
v 0.1 1 -5.96046e-008
v 0.1 1.1 0.6
v 0.1 1.1 0.5
v 0.1 1.2 0.7
v 0.1 1.2 0.5
v 0.1 1.2 0.4
v 0.1 1.2 0.3
v 0.1 1.2 0.2
v 0.1 1.2 -5.96046e-008
v 0.1 1.2 -0.1
v 0.1 1.3 0.6
v 0.1 1.3 0.5
v 0.1 1.4 -0.2
v 0.1 1.4 -0.3
v 0.1 1.4 -0.6
v 0.1 1.4 -0.7
v 0.1 1.5 0.1
v 0.1 1.5 -5.96046e-008
v 0.1 1.5 -0.5
v 0.1 1.5 -0.7
v 0.1 1.7 0.6
v 0.1 1.7 0.5
v 0.1 1.7 0.4
v 0.1 1.7 0.3
v 0.1 1.7 0.2
v 0.1 1.7 0.1
v 0.1 1.7 -0.1
v 0.1 1.7 -0.2
v 0.1 1.7 -0.4
v 0.1 1.7 -0.5
v 0.1 1.7 -0.7
v 0.1 1.8 0.6
v 0.1 1.8 0.5
v 0.1 1.8 0.4
v 0.1 1.8 0.2
v 0.1 1.8 0.1
v 0.1 1.8 -0.1
v 0.1 1.8 -0.2
v 0.1 1.8 -0.3
v 0.1 1.8 -0.4
v 0.1 1.8 -0.5
v 0.1 1.8 -0.6
v 0.1 1.8 -0.7
v 0.1 1.9 -5.96046e-008
v 0.1 1.9 -0.1
v 0.1 1.9 -0.2
v 0.1 1.9 -0.3
v 0.1 1.9 -0.5
v 0.1 1.9 -0.6
v 0.1 2 0.7
v 0.1 2 0.6
v 0.1 2 0.5
v 0.1 2 0.4
v 0.1 2 0.2
v 0.1 2 0.1
v 0.1 2 -5.96046e-008
v 0.1 2 -0.1
v 0.1 2 -0.2
v 0.1 2 -0.4
v 0.1 2 -0.5
v 0.1 2 -0.7
v 0.3 0.9 0.6
v 0.3 0.9 0.5
v 0.3 1.1 0.6
v 0.3 1.1 0.5
v -0.1 0 0.7
v -0.1 0.1 0.7
v -0.1 0.5 0.7
v -0.1 0.6 0.7
v -0.1 1 0.7
v -0.1 1.3 0.7
v -0.1 1.6 0.7
v -0.1 2 0.7
v 2.98023e-008 0 0.7
v 2.98023e-008 0.1 0.7
v 2.98023e-008 0.4 0.7
v 2.98023e-008 0.5 0.7
v 2.98023e-008 0.6 0.7
v 2.98023e-008 0.9 0.7
v 2.98023e-008 1 0.7
v 2.98023e-008 1.2 0.7
v 2.98023e-008 1.3 0.7
v 2.98023e-008 1.6 0.7
v 0.1 0 0.7
v 0.1 0.4 0.7
v 0.1 0.9 0.7
v 0.1 1.2 0.7
v 0.1 2 0.7
v -0.3 0.9 0.6
v -0.3 1.1 0.6
v -0.1 0.9 0.6
v -0.1 1 0.6
v -0.1 1.1 0.6
v 0.1 0.9 0.6
v 0.1 1.1 0.6
v 0.3 0.9 0.6
v 0.3 1.1 0.6
v -0.3 0.9 0.5
v -0.3 1.1 0.5
v -0.1 0.9 0.5
v -0.1 1.1 0.5
v 0.1 0.9 0.5
v 0.1 1.1 0.5
v 0.3 0.9 0.5
v 0.3 1.1 0.5
v -0.1 0 -0.7
v -0.1 0.1 -0.7
v -0.1 0.3 -0.7
v -0.1 0.6 -0.7
v -0.1 0.9 -0.7
v -0.1 1.6 -0.7
v -0.1 1.8 -0.7
v -0.1 2 -0.7
v 2.98023e-008 0 -0.7
v 2.98023e-008 0.1 -0.7
v 2.98023e-008 0.2 -0.7
v 2.98023e-008 0.4 -0.7
v 2.98023e-008 0.6 -0.7
v 2.98023e-008 0.9 -0.7
v 2.98023e-008 1.4 -0.7
v 2.98023e-008 1.5 -0.7
v 2.98023e-008 1.6 -0.7
v 2.98023e-008 1.7 -0.7
v 0.1 0 -0.7
v 0.1 0.2 -0.7
v 0.1 0.3 -0.7
v 0.1 0.4 -0.7
v 0.1 0.6 -0.7
v 0.1 1.4 -0.7
v 0.1 1.5 -0.7
v 0.1 1.7 -0.7
v 0.1 1.8 -0.7
v 0.1 2 -0.7
v -0.1 0 0.7
v 2.98023e-008 0 0.7
v 0.1 0 0.7
v -0.1 0 0.6
v 2.98023e-008 0 0.6
v -0.1 0 0.5
v 0.1 0 0.5
v -0.1 0 0.4
v 2.98023e-008 0 0.4
v 0.1 0 0.4
v -0.1 0 0.3
v 2.98023e-008 0 0.3
v -0.1 0 0.2
v 0.1 0 0.2
v -0.1 0 0.1
v 0.1 0 0.1
v -0.1 0 -0.1
v 0.1 0 -0.1
v -0.1 0 -0.2
v 0.1 0 -0.2
v -0.1 0 -0.3
v 0.1 0 -0.3
v -0.1 0 -0.4
v 0.1 0 -0.4
v -0.1 0 -0.5
v 2.98023e-008 0 -0.5
v 0.1 0 -0.5
v -0.1 0 -0.6
v 2.98023e-008 0 -0.6
v 0.1 0 -0.6
v -0.1 0 -0.7
v 2.98023e-008 0 -0.7
v 0.1 0 -0.7
v -0.3 0.9 0.6
v -0.1 0.9 0.6
v 0.1 0.9 0.6
v 0.3 0.9 0.6
v -0.3 0.9 0.5
v -0.1 0.9 0.5
v 0.1 0.9 0.5
v 0.3 0.9 0.5
v -0.3 1.1 0.6
v -0.1 1.1 0.6
v 0.1 1.1 0.6
v 0.3 1.1 0.6
v -0.3 1.1 0.5
v -0.1 1.1 0.5
v 0.1 1.1 0.5
v 0.3 1.1 0.5
v -0.1 2 0.7
v 0.1 2 0.7
v -0.1 2 0.6
v 0.1 2 0.6
v -0.1 2 0.5
v 0.1 2 0.5
v -0.1 2 0.4
v 0.1 2 0.4
v -0.1 2 0.2
v 0.1 2 0.2
v -0.1 2 0.1
v 0.1 2 0.1
v -0.1 2 -5.96046e-008
v 0.1 2 -5.96046e-008
v -0.1 2 -0.1
v 0.1 2 -0.1
v -0.1 2 -0.2
v 2.98023e-008 2 -0.2
v 0.1 2 -0.2
v -0.1 2 -0.4
v 2.98023e-008 2 -0.4
v 0.1 2 -0.4
v -0.1 2 -0.5
v 0.1 2 -0.5
v -0.1 2 -0.7
v 0.1 2 -0.7

# faces
f 3/4/1 2/4/1 1/4/1
f 4/4/1 2/4/1 3/4/1
f 19/3/1 6/3/1 5/3/1
f 20/1/1 7/1/1 6/1/1
f 20/3/1 6/3/1 19/3/1
f 21/2/1 8/2/1 7/2/1
f 21/3/1 9/3/1 8/3/1
f 22/1/1 10/1/1 9/1/1
f 22/3/1 9/3/1 21/3/1
f 23/2/1 13/2/1 12/2/1
f 23/3/1 14/3/1 13/3/1
f 24/1/1 15/1/1 14/1/1
f 24/3/1 14/3/1 23/3/1
f 25/2/1 16/2/1 15/2/1
f 25/3/1 17/3/1 16/3/1
f 26/1/1 18/1/1 17/1/1
f 26/3/1 17/3/1 25/3/1
f 27/1/1 18/1/1 26/1/1
f 28/1/1 7/1/1 20/1/1
f 28/1/1 20/1/1 19/1/1
f 29/2/1 21/2/1 7/2/1
f 29/1/1 7/1/1 28/1/1
f 30/1/1 22/1/1 21/1/1
f 30/2/1 21/2/1 29/2/1
f 31/2/1 11/2/1 10/2/1
f 31/1/1 22/1/1 30/1/1
f 31/1/1 10/1/1 22/1/1
f 32/1/1 12/1/1 11/1/1
f 32/2/1 11/2/1 31/2/1
f 33/2/1 23/2/1 12/2/1
f 33/1/1 12/1/1 32/1/1
f 34/1/1 24/1/1 23/1/1
f 34/2/1 23/2/1 33/2/1
f 35/2/1 25/2/1 15/2/1
f 35/1/1 24/1/1 34/1/1
f 35/1/1 15/1/1 24/1/1
f 36/1/1 26/1/1 25/1/1
f 36/2/1 25/2/1 35/2/1
f 37/4/1 27/4/1 26/4/1
f 37/1/1 26/1/1 36/1/1
f 38/4/1 34/4/1 33/4/1
f 38/4/1 36/4/1 35/4/1
f 38/4/1 37/4/1 36/4/1
f 38/4/1 33/4/1 32/4/1
f 38/4/1 32/4/1 31/4/1
f 38/4/1 29/4/1 28/4/1
f 38/4/1 35/4/1 34/4/1
f 38/4/1 31/4/1 30/4/1
f 38/4/1 30/4/1 29/4/1
f 38/1/1 28/1/1 19/1/1
f 39/4/1 37/4/1 38/4/1
f 40/4/1 37/4/1 39/4/1
f 41/4/1 37/4/1 40/4/1
f 42/4/1 37/4/1 41/4/1
f 43/4/1 37/4/1 42/4/1
f 44/4/1 37/4/1 43/4/1
f 45/4/1 37/4/1 44/4/1
f 46/4/1 37/4/1 45/4/1
f 47/4/1 37/4/1 46/4/1
f 48/4/1 27/4/1 37/4/1
f 48/4/1 37/4/1 47/4/1
f 49/4/1 27/4/1 48/4/1
f 50/1/1 38/1/1 19/1/1
f 50/1/1 39/1/1 38/1/1
f 51/2/1 40/2/1 39/2/1
f 51/1/1 39/1/1 50/1/1
f 52/1/1 41/1/1 40/1/1
f 53/2/1 42/2/1 41/2/1
f 53/1/1 41/1/1 52/1/1
f 54/1/1 43/1/1 42/1/1
f 55/2/1 44/2/1 43/2/1
f 55/1/1 43/1/1 54/1/1
f 56/3/1 45/3/1 44/3/1
f 56/2/1 44/2/1 55/2/1
f 57/1/1 46/1/1 45/1/1
f 57/3/1 45/3/1 56/3/1
f 58/2/1 47/2/1 46/2/1
f 58/1/1 46/1/1 57/1/1
f 59/3/1 48/3/1 47/3/1
f 59/2/1 47/2/1 58/2/1
f 60/1/1 49/1/1 48/1/1
f 60/3/1 48/3/1 59/3/1
f 61/1/1 50/1/1 19/1/1
f 62/3/1 51/3/1 50/3/1
f 62/1/1 50/1/1 61/1/1
f 63/2/1 42/2/1 53/2/1
f 63/1/1 54/1/1 42/1/1
f 64/3/1 55/3/1 54/3/1
f 64/1/1 54/1/1 63/1/1
f 65/2/1 56/2/1 55/2/1
f 65/3/1 55/3/1 64/3/1
f 66/2/1 59/2/1 58/2/1
f 66/1/1 60/1/1 59/1/1
f 67/1/1 49/1/1 60/1/1
f 67/1/1 60/1/1 66/1/1
f 68/3/1 62/3/1 61/3/1
f 69/2/1 40/2/1 51/2/1
f 69/3/1 62/3/1 68/3/1
f 69/3/1 51/3/1 62/3/1
f 70/1/1 52/1/1 40/1/1
f 70/3/1 53/3/1 52/3/1
f 71/2/1 63/2/1 53/2/1
f 71/3/1 53/3/1 70/3/1
f 72/3/1 64/3/1 63/3/1
f 72/2/1 63/2/1 71/2/1
f 73/1/1 65/1/1 64/1/1
f 73/3/1 64/3/1 72/3/1
f 74/2/1 56/2/1 65/2/1
f 74/1/1 65/1/1 73/1/1
f 75/1/1 57/1/1 56/1/1
f 75/3/1 58/3/1 57/3/1
f 76/2/1 66/2/1 58/2/1
f 76/3/1 58/3/1 75/3/1
f 77/3/1 67/3/1 66/3/1
f 77/2/1 66/2/1 76/2/1
f 78/1/1 49/1/1 67/1/1
f 78/3/1 67/3/1 77/3/1
f 79/1/1 49/1/1 78/1/1
f 80/1/1 69/1/1 68/1/1
f 81/2/1 40/2/1 69/2/1
f 81/1/1 69/1/1 80/1/1
f 82/1/1 73/1/1 72/1/1
f 82/3/1 74/3/1 73/3/1
f 83/2/1 56/2/1 74/2/1
f 83/3/1 74/3/1 82/3/1
f 84/1/1 75/1/1 56/1/1
f 84/1/1 76/1/1 75/1/1
f 85/2/1 77/2/1 76/2/1
f 85/1/1 76/1/1 84/1/1
f 86/1/1 80/1/1 68/1/1
f 86/4/1 81/4/1 80/4/1
f 87/2/1 40/2/1 81/2/1
f 87/4/1 81/4/1 86/4/1
f 88/1/1 70/1/1 40/1/1
f 88/2/1 40/2/1 87/2/1
f 88/1/1 71/1/1 70/1/1
f 89/1/1 71/1/1 88/1/1
f 90/1/1 84/1/1 56/1/1
f 90/3/1 85/3/1 84/3/1
f 91/2/1 77/2/1 85/2/1
f 91/3/1 85/3/1 90/3/1
f 92/1/1 86/1/1 68/1/1
f 92/1/1 87/1/1 86/1/1
f 93/2/1 88/2/1 87/2/1
f 93/1/1 87/1/1 92/1/1
f 94/1/1 82/1/1 72/1/1
f 94/1/1 83/1/1 82/1/1
f 94/2/1 72/2/1 71/2/1
f 95/1/1 83/1/1 94/1/1
f 96/2/1 56/2/1 83/2/1
f 96/1/1 90/1/1 56/1/1
f 96/1/1 91/1/1 90/1/1
f 97/1/1 91/1/1 96/1/1
f 98/3/1 79/3/1 78/3/1
f 98/1/1 78/1/1 77/1/1
f 99/3/1 79/3/1 98/3/1
f 100/1/1 92/1/1 68/1/1
f 101/1/1 92/1/1 100/1/1
f 102/2/1 88/2/1 93/2/1
f 102/3/1 89/3/1 88/3/1
f 103/1/1 71/1/1 89/1/1
f 103/3/1 89/3/1 102/3/1
f 104/3/1 101/3/1 100/3/1
f 105/2/1 102/2/1 93/2/1
f 106/1/1 91/1/1 97/1/1
f 106/3/1 97/3/1 96/3/1
f 107/2/1 77/2/1 91/2/1
f 107/1/1 91/1/1 106/1/1
f 108/1/1 99/1/1 98/1/1
f 108/2/1 77/2/1 107/2/1
f 108/1/1 98/1/1 77/1/1
f 109/1/1 99/1/1 108/1/1
f 110/1/1 83/1/1 95/1/1
f 110/3/1 95/3/1 94/3/1
f 111/2/1 96/2/1 83/2/1
f 111/1/1 83/1/1 110/1/1
f 112/3/1 106/3/1 96/3/1
f 112/2/1 96/2/1 111/2/1
f 112/3/1 107/3/1 106/3/1
f 113/3/1 107/3/1 112/3/1
f 114/3/1 104/3/1 100/3/1
f 115/1/1 105/1/1 104/1/1
f 115/3/1 104/3/1 114/3/1
f 116/1/1 71/1/1 103/1/1
f 116/1/1 103/1/1 102/1/1
f 117/2/1 94/2/1 71/2/1
f 117/1/1 71/1/1 116/1/1
f 118/3/1 111/3/1 110/3/1
f 118/2/1 94/2/1 117/2/1
f 118/3/1 110/3/1 94/3/1
f 119/3/1 111/3/1 118/3/1
f 120/1/1 105/1/1 115/1/1
f 120/1/1 115/1/1 114/1/1
f 121/2/1 102/2/1 105/2/1
f 121/1/1 105/1/1 120/1/1
f 122/3/1 111/3/1 119/3/1
f 122/1/1 119/1/1 118/1/1
f 123/2/1 112/2/1 111/2/1
f 123/3/1 111/3/1 122/3/1
f 124/3/1 109/3/1 108/3/1
f 124/2/1 108/2/1 107/2/1
f 125/1/1 99/1/1 109/1/1
f 125/3/1 109/3/1 124/3/1
f 126/1/1 120/1/1 114/1/1
f 127/3/1 121/3/1 120/3/1
f 127/1/1 120/1/1 126/1/1
f 128/3/1 117/3/1 116/3/1
f 128/1/1 116/1/1 102/1/1
f 129/2/1 118/2/1 117/2/1
f 129/3/1 117/3/1 128/3/1
f 130/1/1 99/1/1 125/1/1
f 130/1/1 125/1/1 124/1/1
f 131/1/1 99/1/1 130/1/1
f 132/3/1 121/3/1 127/3/1
f 132/3/1 127/3/1 126/3/1
f 133/2/1 102/2/1 121/2/1
f 133/3/1 121/3/1 132/3/1
f 134/1/1 128/1/1 102/1/1
f 134/2/1 102/2/1 133/2/1
f 134/1/1 129/1/1 128/1/1
f 135/2/1 118/2/1 129/2/1
f 135/1/1 129/1/1 134/1/1
f 136/1/1 123/1/1 122/1/1
f 136/2/1 118/2/1 135/2/1
f 136/1/1 122/1/1 118/1/1
f 137/2/1 112/2/1 123/2/1
f 137/1/1 123/1/1 136/1/1
f 138/1/1 113/1/1 112/1/1
f 138/2/1 112/2/1 137/2/1
f 139/3/1 107/3/1 113/3/1
f 139/1/1 113/1/1 138/1/1
f 140/2/1 124/2/1 107/2/1
f 140/3/1 107/3/1 139/3/1
f 141/1/1 130/1/1 124/1/1
f 141/2/1 124/2/1 140/2/1
f 142/4/1 131/4/1 130/4/1
f 142/1/1 130/1/1 141/1/1
f 143/3/1 132/3/1 126/3/1
f 143/4/1 139/4/1 138/4/1
f 143/4/1 142/4/1 141/4/1
f 143/4/1 133/4/1 132/4/1
f 143/4/1 140/4/1 139/4/1
f 143/4/1 136/4/1 135/4/1
f 143/4/1 138/4/1 137/4/1
f 143/4/1 137/4/1 136/4/1
f 143/4/1 134/4/1 133/4/1
f 143/4/1 135/4/1 134/4/1
f 143/4/1 141/4/1 140/4/1
f 144/4/1 142/4/1 143/4/1
f 145/4/1 142/4/1 144/4/1
f 146/4/1 142/4/1 145/4/1
f 147/4/1 142/4/1 146/4/1
f 148/4/1 142/4/1 147/4/1
f 149/4/1 142/4/1 148/4/1
f 150/4/1 142/4/1 149/4/1
f 151/4/1 142/4/1 150/4/1
f 152/4/1 142/4/1 151/4/1
f 153/4/1 131/4/1 142/4/1
f 153/4/1 142/4/1 152/4/1
f 154/3/1 143/3/1 126/3/1
f 155/1/1 144/1/1 143/1/1
f 155/3/1 143/3/1 154/3/1
f 156/2/1 145/2/1 144/2/1
f 156/1/1 144/1/1 155/1/1
f 157/1/1 146/1/1 145/1/1
f 157/2/1 145/2/1 156/2/1
f 158/2/1 147/2/1 146/2/1
f 158/1/1 146/1/1 157/1/1
f 159/1/1 148/1/1 147/1/1
f 159/2/1 147/2/1 158/2/1
f 160/3/1 149/3/1 148/3/1
f 160/1/1 148/1/1 159/1/1
f 161/2/1 150/2/1 149/2/1
f 161/3/1 149/3/1 160/3/1
f 162/1/1 151/1/1 150/1/1
f 162/2/1 150/2/1 161/2/1
f 163/2/1 152/2/1 151/2/1
f 163/1/1 151/1/1 162/1/1
f 164/1/1 153/1/1 152/1/1
f 164/2/1 152/2/1 163/2/1
f 165/1/1 153/1/1 164/1/1
f 166/1/2 167/1/2 178/1/2
f 167/2/2 168/2/2 179/2/2
f 178/1/2 167/1/2 179/1/2
f 171/2/2 172/2/2 180/2/2
f 172/3/2 173/3/2 180/3/2
f 173/1/2 174/1/2 181/1/2
f 180/3/2 173/3/2 181/3/2
f 166/1/2 178/1/2 182/1/2
f 178/3/2 179/3/2 182/3/2
f 179/2/2 168/2/2 183/2/2
f 182/3/2 179/3/2 183/3/2
f 168/1/2 169/1/2 184/1/2
f 183/2/2 168/2/2 184/2/2
f 169/2/2 170/2/2 185/2/2
f 184/1/2 169/1/2 185/1/2
f 170/1/2 171/1/2 186/1/2
f 185/2/2 170/2/2 186/2/2
f 171/2/2 180/2/2 187/2/2
f 186/1/2 171/1/2 187/1/2
f 180/1/2 181/1/2 188/1/2
f 187/2/2 180/2/2 188/2/2
f 181/1/2 174/1/2 189/1/2
f 188/1/2 181/1/2 189/1/2
f 174/2/2 175/2/2 189/2/2
f 175/1/2 176/1/2 190/1/2
f 189/2/2 175/2/2 190/2/2
f 176/3/2 177/3/2 191/3/2
f 190/1/2 176/1/2 191/1/2
f 191/3/2 177/3/2 192/3/2
f 189/4/2 190/4/2 193/4/2
f 187/4/2 188/4/2 193/4/2
f 191/4/2 192/4/2 193/4/2
f 190/4/2 191/4/2 193/4/2
f 188/4/2 189/4/2 193/4/2
f 185/4/2 186/4/2 193/4/2
f 186/4/2 187/4/2 193/4/2
f 166/1/2 182/1/2 193/1/2
f 184/4/2 185/4/2 193/4/2
f 183/4/2 184/4/2 193/4/2
f 182/4/2 183/4/2 193/4/2
f 193/4/2 192/4/2 194/4/2
f 194/4/2 192/4/2 195/4/2
f 195/4/2 192/4/2 196/4/2
f 196/4/2 192/4/2 197/4/2
f 197/4/2 192/4/2 198/4/2
f 198/4/2 192/4/2 199/4/2
f 199/4/2 192/4/2 200/4/2
f 200/4/2 192/4/2 201/4/2
f 201/4/2 192/4/2 202/4/2
f 202/4/2 192/4/2 203/4/2
f 203/4/2 192/4/2 204/4/2
f 166/1/2 193/1/2 205/1/2
f 193/1/2 194/1/2 205/1/2
f 194/2/2 195/2/2 206/2/2
f 205/1/2 194/1/2 206/1/2
f 195/1/2 196/1/2 207/1/2
f 206/2/2 195/2/2 207/2/2
f 207/1/2 196/1/2 208/1/2
f 196/2/2 197/2/2 209/2/2
f 197/3/2 198/3/2 209/3/2
f 198/1/2 199/1/2 210/1/2
f 209/3/2 198/3/2 210/3/2
f 203/1/2 204/1/2 211/1/2
f 211/1/2 204/1/2 212/1/2
f 207/3/2 208/3/2 213/3/2
f 206/2/2 207/2/2 213/2/2
f 208/1/2 196/1/2 214/1/2
f 213/3/2 208/3/2 214/3/2
f 200/1/2 201/1/2 215/1/2
f 201/3/2 202/3/2 215/3/2
f 202/2/2 203/2/2 216/2/2
f 215/3/2 202/3/2 216/3/2
f 203/1/2 211/1/2 217/1/2
f 216/2/2 203/2/2 217/2/2
f 211/3/2 212/3/2 218/3/2
f 217/1/2 211/1/2 218/1/2
f 205/3/2 206/3/2 219/3/2
f 206/2/2 213/2/2 220/2/2
f 219/3/2 206/3/2 220/3/2
f 218/3/2 212/3/2 221/3/2
f 217/3/2 218/3/2 221/3/2
f 221/3/2 212/3/2 222/3/2
f 205/3/2 219/3/2 223/3/2
f 219/1/2 220/1/2 223/1/2
f 220/2/2 213/2/2 224/2/2
f 223/1/2 220/1/2 224/1/2
f 210/1/2 199/1/2 225/1/2
f 209/1/2 210/1/2 225/1/2
f 199/2/2 200/2/2 226/2/2
f 225/1/2 199/1/2 226/1/2
f 205/3/2 223/3/2 227/3/2
f 223/4/2 224/4/2 227/4/2
f 224/2/2 213/2/2 228/2/2
f 227/4/2 224/4/2 228/4/2
f 214/1/2 196/1/2 229/1/2
f 213/1/2 214/1/2 229/1/2
f 196/2/2 209/2/2 230/2/2
f 229/1/2 196/1/2 230/1/2
f 226/2/2 200/2/2 231/2/2
f 200/1/2 215/1/2 231/1/2
f 215/1/2 216/1/2 231/1/2
f 231/1/2 216/1/2 232/1/2
f 216/2/2 217/2/2 233/2/2
f 217/3/2 221/3/2 233/3/2
f 221/1/2 222/1/2 234/1/2
f 233/3/2 221/3/2 234/3/2
f 205/3/2 227/3/2 235/3/2
f 227/1/2 228/1/2 236/1/2
f 235/3/2 227/3/2 236/3/2
f 228/2/2 213/2/2 237/2/2
f 236/1/2 228/1/2 237/1/2
f 216/2/2 233/2/2 238/2/2
f 233/1/2 234/1/2 238/1/2
f 234/1/2 222/1/2 239/1/2
f 238/1/2 234/1/2 239/1/2
f 230/2/2 209/2/2 240/2/2
f 209/1/2 225/1/2 240/1/2
f 225/3/2 226/3/2 241/3/2
f 240/1/2 225/1/2 241/1/2
f 235/1/2 236/1/2 242/1/2
f 237/2/2 213/2/2 243/2/2
f 235/1/2 242/1/2 244/1/2
f 242/1/2 243/1/2 244/1/2
f 243/2/2 213/2/2 245/2/2
f 244/1/2 243/1/2 245/1/2
f 213/1/2 229/1/2 246/1/2
f 245/2/2 213/2/2 246/2/2
f 229/3/2 230/3/2 247/3/2
f 246/1/2 229/1/2 247/1/2
f 230/2/2 240/2/2 248/2/2
f 247/3/2 230/3/2 248/3/2
f 241/3/2 226/3/2 249/3/2
f 240/3/2 241/3/2 249/3/2
f 226/2/2 231/2/2 250/2/2
f 249/3/2 226/3/2 250/3/2
f 244/3/2 245/3/2 251/3/2
f 245/2/2 246/2/2 252/2/2
f 251/3/2 245/3/2 252/3/2
f 250/2/2 231/2/2 253/2/2
f 231/3/2 232/3/2 253/3/2
f 232/1/2 216/1/2 254/1/2
f 253/3/2 232/3/2 254/3/2
f 239/1/2 222/1/2 255/1/2
f 238/3/2 239/3/2 255/3/2
f 255/1/2 222/1/2 256/1/2
f 248/2/2 240/2/2 257/2/2
f 240/3/2 249/3/2 257/3/2
f 249/1/2 250/1/2 258/1/2
f 257/3/2 249/3/2 258/3/2
f 216/2/2 238/2/2 259/2/2
f 255/3/2 256/3/2 259/3/2
f 238/3/2 255/3/2 259/3/2
f 259/3/2 256/3/2 260/3/2
f 244/3/2 251/3/2 261/3/2
f 251/1/2 252/1/2 261/1/2
f 252/2/2 246/2/2 262/2/2
f 261/1/2 252/1/2 262/1/2
f 246/3/2 247/3/2 263/3/2
f 262/2/2 246/2/2 263/2/2
f 247/1/2 248/1/2 264/1/2
f 263/3/2 247/3/2 264/3/2
f 248/2/2 257/2/2 265/2/2
f 264/1/2 248/1/2 265/1/2
f 257/1/2 258/1/2 266/1/2
f 265/2/2 257/2/2 266/2/2
f 258/1/2 250/1/2 267/1/2
f 266/1/2 258/1/2 267/1/2
f 250/2/2 253/2/2 267/2/2
f 253/1/2 254/1/2 268/1/2
f 267/2/2 253/2/2 268/2/2
f 254/1/2 216/1/2 269/1/2
f 268/1/2 254/1/2 269/1/2
f 216/2/2 259/2/2 269/2/2
f 259/1/2 260/1/2 270/1/2
f 269/2/2 259/2/2 270/2/2
f 270/1/2 260/1/2 271/1/2
f 265/4/2 266/4/2 272/4/2
f 267/4/2 268/4/2 272/4/2
f 270/4/2 271/4/2 272/4/2
f 269/4/2 270/4/2 272/4/2
f 244/3/2 261/3/2 272/3/2
f 262/4/2 263/4/2 272/4/2
f 264/4/2 265/4/2 272/4/2
f 266/4/2 267/4/2 272/4/2
f 268/4/2 269/4/2 272/4/2
f 261/4/2 262/4/2 272/4/2
f 263/4/2 264/4/2 272/4/2
f 272/4/2 271/4/2 273/4/2
f 273/4/2 271/4/2 274/4/2
f 274/4/2 271/4/2 275/4/2
f 275/4/2 271/4/2 276/4/2
f 276/4/2 271/4/2 277/4/2
f 277/4/2 271/4/2 278/4/2
f 278/4/2 271/4/2 279/4/2
f 279/4/2 271/4/2 280/4/2
f 280/4/2 271/4/2 281/4/2
f 281/4/2 271/4/2 282/4/2
f 282/4/2 271/4/2 283/4/2
f 276/1/2 277/1/2 284/1/2
f 277/2/2 278/2/2 285/2/2
f 284/1/2 277/1/2 285/1/2
f 278/1/2 279/1/2 286/1/2
f 285/2/2 278/2/2 286/2/2
f 279/3/2 280/3/2 287/3/2
f 286/1/2 279/1/2 287/1/2
f 280/2/2 281/2/2 288/2/2
f 281/3/2 282/3/2 288/3/2
f 282/1/2 283/1/2 289/1/2
f 288/3/2 282/3/2 289/3/2
f 244/3/2 272/3/2 290/3/2
f 272/1/2 273/1/2 291/1/2
f 290/3/2 272/3/2 291/3/2
f 273/2/2 274/2/2 292/2/2
f 291/1/2 273/1/2 292/1/2
f 274/1/2 275/1/2 293/1/2
f 292/2/2 274/2/2 293/2/2
f 275/2/2 276/2/2 294/2/2
f 293/1/2 275/1/2 294/1/2
f 276/1/2 284/1/2 295/1/2
f 294/2/2 276/2/2 295/2/2
f 284/3/2 285/3/2 296/3/2
f 295/1/2 284/1/2 296/1/2
f 285/2/2 286/2/2 297/2/2
f 296/3/2 285/3/2 297/3/2
f 286/3/2 287/3/2 298/3/2
f 297/2/2 286/2/2 298/2/2
f 287/3/2 280/3/2 299/3/2
f 298/3/2 287/3/2 299/3/2
f 280/2/2 288/2/2 299/2/2
f 288/1/2 289/1/2 300/1/2
f 299/2/2 288/2/2 300/2/2
f 289/1/2 283/1/2 301/1/2
f 300/1/2 289/1/2 301/1/2
f 302/4/2 303/4/2 304/4/2
f 304/4/2 303/4/2 305/4/2
f 314/3/3 307/3/3 306/3/3
f 315/1/3 308/1/3 307/1/3
f 315/3/3 307/3/3 314/3/3
f 316/1/3 308/1/3 315/1/3
f 317/3/3 309/3/3 308/3/3
f 317/1/3 308/1/3 316/1/3
f 318/1/3 310/1/3 309/1/3
f 318/3/3 309/3/3 317/3/3
f 319/1/3 310/1/3 318/1/3
f 320/3/3 311/3/3 310/3/3
f 320/1/3 310/1/3 319/1/3
f 321/3/3 311/3/3 320/3/3
f 322/1/3 312/1/3 311/1/3
f 322/3/3 311/3/3 321/3/3
f 323/3/3 313/3/3 312/3/3
f 323/1/3 312/1/3 322/1/3
f 324/1/3 316/1/3 315/1/3
f 324/1/3 315/1/3 314/1/3
f 325/3/3 317/3/3 316/3/3
f 325/1/3 316/1/3 324/1/3
f 325/3/3 319/3/3 318/3/3
f 325/3/3 318/3/3 317/3/3
f 326/1/3 320/1/3 319/1/3
f 326/3/3 319/3/3 325/3/3
f 326/1/3 321/1/3 320/1/3
f 327/3/3 322/3/3 321/3/3
f 327/1/3 321/1/3 326/1/3
f 327/3/3 323/3/3 322/3/3
f 328/3/3 313/3/3 323/3/3
f 328/3/3 323/3/3 327/3/3
f 331/4/3 330/4/3 329/4/3
f 332/4/3 330/4/3 331/4/3
f 333/4/3 330/4/3 332/4/3
f 336/4/3 335/4/3 334/4/3
f 337/4/3 335/4/3 336/4/3
f 338/4/4 339/4/4 340/4/4
f 340/4/4 339/4/4 341/4/4
f 342/4/4 343/4/4 344/4/4
f 344/4/4 343/4/4 345/4/4
f 346/1/4 347/1/4 354/1/4
f 347/4/4 348/4/4 355/4/4
f 354/1/4 347/1/4 355/1/4
f 355/4/4 348/4/4 356/4/4
f 348/1/4 349/1/4 357/1/4
f 349/3/4 350/3/4 358/3/4
f 357/1/4 349/1/4 358/1/4
f 350/1/4 351/1/4 359/1/4
f 358/3/4 350/3/4 359/3/4
f 359/1/4 351/1/4 360/1/4
f 360/1/4 351/1/4 361/1/4
f 351/4/4 352/4/4 362/4/4
f 361/1/4 351/1/4 362/1/4
f 362/4/4 352/4/4 363/4/4
f 354/3/4 355/3/4 364/3/4
f 355/3/4 356/3/4 364/3/4
f 356/4/4 348/4/4 365/4/4
f 364/3/4 356/3/4 365/3/4
f 348/1/4 357/1/4 366/1/4
f 365/4/4 348/4/4 366/4/4
f 357/3/4 358/3/4 367/3/4
f 366/1/4 357/1/4 367/1/4
f 358/1/4 359/1/4 368/1/4
f 367/3/4 358/3/4 368/3/4
f 359/1/4 360/1/4 368/1/4
f 360/3/4 361/3/4 369/3/4
f 368/1/4 360/1/4 369/1/4
f 362/1/4 363/1/4 370/1/4
f 369/3/4 361/3/4 370/3/4
f 361/1/4 362/1/4 370/1/4
f 363/4/4 352/4/4 371/4/4
f 370/1/4 363/1/4 371/1/4
f 352/1/4 353/1/4 372/1/4
f 371/4/4 352/4/4 372/4/4
f 372/1/4 353/1/4 373/1/4
f 377/3/5 375/3/5 374/3/5
f 378/1/5 376/1/5 375/1/5
f 378/3/5 375/3/5 377/3/5
f 379/1/5 378/1/5 377/1/5
f 380/1/5 376/1/5 378/1/5
f 380/1/5 378/1/5 379/1/5
f 381/2/5 380/2/5 379/2/5
f 382/2/5 380/2/5 381/2/5
f 383/2/5 380/2/5 382/2/5
f 384/3/5 382/3/5 381/3/5
f 385/1/5 383/1/5 382/1/5
f 385/3/5 382/3/5 384/3/5
f 386/1/5 385/1/5 384/1/5
f 387/1/5 383/1/5 385/1/5
f 387/1/5 385/1/5 386/1/5
f 388/2/5 387/2/5 386/2/5
f 389/2/5 387/2/5 388/2/5
f 390/1/5 389/1/5 388/1/5
f 391/1/5 389/1/5 390/1/5
f 392/2/5 391/2/5 390/2/5
f 393/2/5 391/2/5 392/2/5
f 394/3/5 393/3/5 392/3/5
f 395/3/5 393/3/5 394/3/5
f 396/1/5 395/1/5 394/1/5
f 397/1/5 395/1/5 396/1/5
f 398/2/5 397/2/5 396/2/5
f 399/2/5 397/2/5 398/2/5
f 400/2/5 397/2/5 399/2/5
f 401/3/5 399/3/5 398/3/5
f 402/1/5 400/1/5 399/1/5
f 402/3/5 399/3/5 401/3/5
f 403/1/5 400/1/5 402/1/5
f 404/1/5 402/1/5 401/1/5
f 405/3/5 403/3/5 402/3/5
f 405/1/5 402/1/5 404/1/5
f 406/3/5 403/3/5 405/3/5
f 411/4/5 408/4/5 407/4/5
f 412/4/5 408/4/5 411/4/5
f 413/4/5 410/4/5 409/4/5
f 414/4/5 410/4/5 413/4/5
f 415/4/6 416/4/6 419/4/6
f 419/4/6 416/4/6 420/4/6
f 417/4/6 418/4/6 421/4/6
f 421/4/6 418/4/6 422/4/6
f 423/3/6 424/3/6 425/3/6
f 425/3/6 424/3/6 426/3/6
f 425/1/6 426/1/6 427/1/6
f 427/1/6 426/1/6 428/1/6
f 427/2/6 428/2/6 429/2/6
f 429/2/6 428/2/6 430/2/6
f 429/1/6 430/1/6 431/1/6
f 431/1/6 430/1/6 432/1/6
f 431/2/6 432/2/6 433/2/6
f 433/2/6 432/2/6 434/2/6
f 433/1/6 434/1/6 435/1/6
f 435/1/6 434/1/6 436/1/6
f 435/3/6 436/3/6 437/3/6
f 437/3/6 436/3/6 438/3/6
f 437/2/6 438/2/6 439/2/6
f 439/2/6 438/2/6 440/2/6
f 440/2/6 438/2/6 441/2/6
f 439/1/6 440/1/6 442/1/6
f 440/3/6 441/3/6 443/3/6
f 442/1/6 440/1/6 443/1/6
f 443/3/6 441/3/6 444/3/6
f 442/2/6 443/2/6 445/2/6
f 443/2/6 444/2/6 445/2/6
f 445/2/6 444/2/6 446/2/6
f 445/1/6 446/1/6 447/1/6
f 447/1/6 446/1/6 448/1/6
